<?xml version="1.0" encoding="UTF-8"?>
<!DOCTYPE svg PUBLIC "-//W3C//DTD SVG 1.1//EN" "http://www.w3.org/Graphics/SVG/1.1/DTD/svg11.dtd">
<svg xmlns="http://www.w3.org/2000/svg" xml:space="preserve" width="591px" height="165px" style="shape-rendering:geometricPrecision; text-rendering:geometricPrecision; image-rendering:optimizeQuality; fill-rule:evenodd; clip-rule:evenodd"
viewBox="0 0 591 165.48"
 xmlns:xlink="http://www.w3.org/1999/xlink">
 <defs>
  <style type="text/css">
   <![CDATA[
    .fil0 {fill:#C5C55B;fill-rule:nonzero}
   ]]>
  </style>
 </defs>
 <path class="fil0" d="M216.597 96.5848c-2.12169,0 -4.17246,0.145386 -6.22205,0.438522l0 -30.2296c0,-4.4656 -2.05077,-6.66057 -6.22323,-6.66057l-3.80368 0 -0.440886 0.438522 0 39.0143c0,4.17246 2.05077,6.22205 6.22323,6.22205l14.7856 0c4.02589,0 6.29533,-1.75645 6.87924,-5.12515 0.14775,-0.878226 0.219852,-2.26944 0.219852,-4.09799l-11.4181 0zm350.175 -19.1047c1.75645,1.17136 2.63468,3.4408 2.63468,6.8816l0 21.2252c1.39121,0.293136 3.14767,0.440886 5.12515,0.440886 1.97512,0 3.73157,-0.14775 5.12279,-0.440886l0 -20.568c1.31911,-2.34154 3.0732,-3.43844 5.34382,-3.43844 1.46332,0.290772 2.63468,0.583908 3.43844,0.878226 1.75763,-2.85689 2.56258,-6.07666 2.56258,-9.66403 -1.83092,-0.43734 -3.21859,-0.657192 -4.24456,-0.657192 -4.02707,0 -6.80714,1.9763 -8.34374,6.00101 -1.60988,-3.58737 -4.46678,-5.56249 -8.63924,-6.00101 -1.39003,1.31675 -2.41601,3.0732 -2.99992,5.34264zm-5.12279 15.0043c0.583908,-1.97512 0.878226,-4.24456 0.878226,-6.80714 0,-4.02471 -1.24465,-7.39105 -3.66065,-10.1014 -2.41601,-2.56021 -5.78471,-3.87814 -10.1014,-3.87814 -9.66285,0 -14.567,5.92891 -14.567,17.7867 0,11.4926 4.90412,17.2016 14.567,17.2016 5.19844,0 9.443,-1.31793 12.8838,-3.88051 -0.294318,-2.56021 -1.17254,-4.61098 -2.78243,-6.00101 -3.29423,1.24346 -6.07548,1.90302 -8.34492,1.90302 -3.58737,0 -5.56249,-2.05077 -6.00101,-6.22323l17.1284 0zm-12.8838 -13.4677c2.85453,0 4.31666,1.82974 4.31666,5.56367l0 0.878226 -8.56123 0c0.144204,-4.31903 1.53542,-6.4419 4.24456,-6.4419zm-20.568 4.90412c0,-7.83193 -3.0011,-11.7834 -9.00448,-11.7834 -3.14648,0 -6.29415,1.38885 -9.44182,4.09799 -0.878226,-2.70914 -2.63468,-4.09799 -5.34382,-4.09799l-3.87932 0 -0.43734 0.657192 0 32.7922c1.31557,0.293136 2.92545,0.440886 4.97504,0.440886 1.97867,0 3.73512,-0.14775 5.345,-0.440886l0 -22.1034c1.53778,-1.39121 3.14767,-2.12524 4.68427,-2.12524 1.9042,0 2.78243,1.39121 2.78243,4.31903l0 14.1273c0,4.17246 1.90302,6.22323 5.63459,6.22323 2.56258,0 4.68545,-0.731658 6.4419,-2.12287 -1.17136,-1.46568 -1.75645,-3.58737 -1.75645,-6.4419l0 -13.5422zm-35.3548 8.56359c0.512988,-1.97512 0.806124,-4.24456 0.806124,-6.80714 0,-4.02471 -1.09926,-7.39105 -3.3687,-10.1014 -2.63468,-2.56021 -6.00101,-3.87814 -10.1014,-3.87814 -9.88034,0 -14.7845,5.92891 -14.7845,17.7867 0,11.4926 4.82965,17.2016 14.5658,17.2016 5.12515,0 9.44182,-1.31793 12.8826,-3.88051 -0.293136,-2.56021 -1.17136,-4.61098 -2.56258,-6.00101 -3.43844,1.24346 -6.29533,1.90302 -8.63569,1.90302 -3.51409,0 -5.56367,-2.05077 -6.00338,-6.22323l17.2016 0zm-12.8826 -13.4677c2.85571,0 4.24693,1.82974 4.24693,5.56367l0 0.878226 -8.56595 0c0.293136,-4.31903 1.75882,-6.4419 4.31903,-6.4419zm-50.2137 10.4678c0,11.4926 4.02589,17.2016 12.0044,17.2016 3.4408,0 6.4419,-1.4645 9.00448,-4.31903 1.60988,2.41601 4.02589,3.66065 7.32013,3.66065 1.60988,-1.17254 2.56021,-2.85689 2.99992,-5.12633 -1.24346,-1.02243 -1.90302,-2.70678 -1.90302,-4.97504l0 -32.5736c0,-4.17246 -1.90302,-6.22205 -5.56367,-6.22205l-4.09681 0 -0.440886 0.439704 0 15.8837c-1.97512,-0.878226 -4.02589,-1.31675 -6.00101,-1.31675 -3.73512,0 -6.8816,1.46332 -9.44182,4.46441 -2.56258,3.14648 -3.88169,7.46551 -3.88169,12.8826zm14.6391 8.78226c-2.63468,0 -3.87814,-2.92545 -3.87814,-8.78226 0,-6.58847 1.46332,-9.8827 4.4656,-9.8827 1.02243,0 2.41364,0.512988 4.09799,1.53778l0 14.567c-1.31675,1.75645 -2.85335,2.56021 -4.68545,2.56021zm-39.8925 -20.7867c1.68435,1.17136 2.56258,3.4408 2.56258,6.8816l0 21.2252c1.39121,0.293136 3.07556,0.440886 4.90412,0.440886 2.04959,0 3.73394,-0.14775 5.19725,-0.440886l0 -20.568c1.53778,-2.34154 3.36634,-3.43844 5.56367,-3.43844 1.39003,0.290772 2.48811,0.583908 3.21977,0.878226 1.68435,-2.85689 2.56258,-6.07666 2.56258,-9.66403 -1.75645,-0.43734 -3.14767,-0.657192 -4.32021,-0.657192 -3.87814,0 -6.65939,1.9763 -8.34137,6.00101 -1.61225,-3.58737 -4.39468,-5.56249 -8.34492,-6.00101 -1.61225,1.31675 -2.56258,3.0732 -3.00346,5.34264zm-3.87932 23.4213c-1.31793,-0.878226 -1.90302,-2.34036 -1.90302,-4.31666l0 -13.5422c0,-7.39223 -3.95261,-11.1262 -11.8578,-11.1262 -5.26936,0 -10.2479,0.952692 -15.0055,2.78125 0.294318,3.29423 1.17254,5.71024 2.56258,7.32013 4.61098,-1.46332 7.83311,-2.19497 9.66167,-2.19497 2.85571,0 4.31903,1.46332 4.31903,4.31785l0 1.09926c-1.17136,-0.146568 -2.70914,-0.221034 -4.75755,-0.221034 -3.65947,0 -6.66057,0.952692 -9.00329,3.00228 -2.70796,1.97512 -4.02589,4.82965 -4.02589,8.56359 0,2.56021 0.731658,4.82965 2.34391,6.87924 1.82855,2.12287 4.46323,3.22213 7.683,3.22213 3.58737,0 6.73504,-1.39003 9.44418,-4.10036 1.90302,2.26944 4.31666,3.44198 7.32013,3.44198 1.53542,-1.17254 2.63468,-2.85689 3.21859,-5.12633zm-16.9806 -1.97512c-1.97749,0 -3.00228,-1.02479 -3.00228,-2.99992 0,-2.85453 1.3924,-4.24574 4.10036,-4.24574 0.731658,0 1.90302,0.073284 3.65947,0.145386l0 5.19725c-1.60988,1.24346 -3.14767,1.90302 -4.75755,1.90302zm-35.5735 -18.8836c-0.587454,1.46213 -0.878226,2.85335 -0.878226,4.31903 0,2.99992 1.68199,4.46323 4.97622,4.46323l3.4408 0c-0.146568,1.02479 -0.21867,2.56258 -0.21867,4.53888l0 4.31903c-1.90302,0.365238 -3.80722,0.583908 -5.78234,0.583908 -7.32013,0 -10.9796,-4.90294 -10.9796,-14.7833 0,-10.1014 3.58501,-15.2265 10.7586,-15.2265 3.80604,0 7.54116,1.17136 11.1262,3.4408 2.85571,-1.83092 4.39113,-4.31903 4.5377,-7.46669 -5.05069,-3.14767 -10.5387,-4.75755 -16.5421,-4.75755 -5.56367,0 -10.3212,1.9763 -14.1273,6.00101 -4.31903,4.46678 -6.4419,10.3957 -6.4419,17.7879 0,15.5918 6.66293,23.4237 19.912,23.4237 6.00101,0 11.7834,-0.952692 17.4191,-2.78125l0 -17.4215c0,-4.39113 -2.34154,-6.58729 -6.88042,-6.44072l-10.32 0zm-23.1306 -7.02699c-1.60988,-0.586272 -3.4408,-0.878226 -5.56367,-0.878226 -1.60988,0 -2.92781,0.219852 -4.09799,0.657192l-5.78234 25.4721c-0.293136,0 -0.439704,-0.144204 -0.439704,-0.365238 -0.731658,-4.61098 -1.24465,-7.5388 -1.53778,-8.85791l-3.0011 -12.4417c-0.658374,-3.0011 -2.41483,-4.46441 -5.12279,-4.46441 -2.12405,0 -4.24693,0.438522 -6.22205,1.31675l7.5388 28.4732c0.806124,2.70914 3.14767,4.10036 6.80714,4.10036l-0.146568 0.878226c-1.02479,3.5129 -3.14767,5.34382 -6.4419,5.34382 -2.04722,0 -4.02589,-0.293136 -6.00101,-0.878226 -1.75645,1.82855 -2.41601,4.31666 -1.97512,7.31776 2.56021,0.804942 5.19489,1.24583 7.97614,1.24583 7.97968,0 13.3235,-5.05069 16.0303,-15.2265l8.41939 -31.1079 -0.439704 -0.58509zm-58.7773 23.7889c-0.878226,1.0969 -1.31911,2.34036 -1.31911,3.65947 0,1.24346 0.36642,2.99992 1.10044,5.12279l19.7619 0c3.65947,0 5.56367,-1.60988 5.56367,-4.68545 0,-1.02243 -0.36642,-2.34036 -1.09808,-3.87814 -1.39003,0.587454 -3.4408,0.878226 -6.00338,0.878226l-2.34154 0c-1.6087,0 -3.29305,0.146568 -5.12515,0.587454l-0.21867 -0.440886c1.24465,-1.24346 2.929,-3.21977 4.90412,-6.00101l7.9064 -10.6888c0.731658,-0.878226 1.09808,-1.82855 1.09808,-2.99992 0,-1.17018 -0.440886,-3.0011 -1.31911,-5.56367l-22.9095 0c-0.440886,1.53778 -0.659556,3.0011 -0.659556,4.24693 0,1.17018 0.146568,2.26944 0.440886,3.21977l4.90294 0c2.34154,0 5.12397,-0.146568 8.41702,-0.438522l0 0.219852c-2.04959,2.34036 -3.80604,4.39113 -5.41592,6.22205l-7.68536 10.5399zm-4.90412 4.09681c-1.17136,-0.878226 -1.75645,-2.34036 -1.75645,-4.31666l0 -13.5422c0,-7.39223 -3.95379,-11.1262 -11.7857,-11.1262 -5.26936,0 -10.3921,0.952692 -15.2242,2.78125 0.43734,3.29423 1.31557,5.71024 2.56258,7.32013 4.6098,-1.46332 7.82957,-2.19497 9.66049,-2.19497 3.0011,0 4.53888,1.46332 4.53888,4.31785l0 1.09926c-1.31675,-0.146568 -2.929,-0.221034 -4.97858,-0.221034 -3.73276,0 -6.73267,0.952692 -9.00211,3.00228 -2.56258,1.97512 -3.87814,4.82965 -3.87814,8.56359 0,2.56021 0.80376,4.82965 2.41246,6.87924 1.8321,2.12287 4.32021,3.22213 7.46669,3.22213 3.58855,0 6.80714,-1.39003 9.66403,-4.10036 1.68199,2.26944 4.09799,3.44198 7.09791,3.44198 1.68435,-1.17254 2.78243,-2.85689 3.22213,-5.12633zm-16.983 -1.97512c-1.97512,0 -3.0011,-1.02479 -3.0011,-2.99992 0,-2.85453 1.46568,-4.24574 4.31903,-4.24574 0.58509,0 1.75763,0.073284 3.66065,0.145386l0 5.19725c-1.75645,1.24346 -3.36634,1.90302 -4.97858,1.90302z"/>
   <path class="fil0" d="M1.40422 77.8643c-4.29539,18.9888 1.26947,36.22 16.5953,51.6428 14.0102,14.3022 32.4624,23.6258 55.3554,28.0193 23.5265,4.68663 44.2233,2.58858 62.0396,-6.29651 20.3068,-10.0068 32.5109,-27.1399 36.6101,-51.4477 4.97977,-28.7025 -6.81423,-49.1405 -35.2922,-61.5042 -1.20091,-0.522444 -4.24338,-1.16072 -5.53885,-1.57915 -0.702108,-0.24822 -1.97749,-0.367602 -2.5543,-0.553176l-0.51417 -0.131202c-2.43137,-0.62646 -5.03887,-1.29784 -7.39577,-0.825036l-0.06501 0.013002 -0.02955 0.002364c-1.27183,0.098106 -2.28599,0.193848 -3.14648,0.290772l-0.055554 0.00591 -0.02955 0 -0.007092 0 0 -0.003546c-0.601638,0 -1.43968,0.10638 -2.50348,0.326232 -0.160752,0.034278 -0.343962,0.074466 -0.548448,0.121746 -0.90423,0.20685 -1.94557,0.486984 -3.1193,0.847494 -0.10638,0.069738 -0.30141,0.182028 -0.598092,0.329778l-0.068556 0.034278 -0.07683 0.021276 -0.002364 0 0 0.002364c-0.167844,0.046098 -0.346326,0.10638 -0.534264,0.18321 -0.197394,0.079194 -0.398334,0.170208 -0.59691,0.273042 -1.09808,0.56145 -2.38764,1.5236 -3.83559,2.90417l0 0.001182 -0.003546 0.003546 -0.003546 0 -0.007092 0.008274 -0.411336 0.40779 -0.003546 0.002364 -0.393606 0.385332 -0.002364 0.003546c-0.497622,0.483438 -0.92196,0.884136 -1.26238,1.19973 0.028368,0.119382 0.056736,0.232854 0.083922,0.351054 0.075648,0.312048 0.157206,0.657192 0.213942,0.920778l0.008274 0.039006 0.003546 0.033096c0.089832,0.731658 0.352236,1.61343 0.781302,2.64532 0.44325,1.06262 1.05671,2.26944 1.83801,3.6181 0.717474,1.11699 1.39003,2.28717 2.00231,3.52354 0.60873,1.23046 1.15954,2.53066 1.63589,3.91242l0.003546 0.010638 0.001182 -0.002364c0.099288,0.28959 0.208032,0.621732 0.329778,0.99288 0.099288,0.309684 0.20685,0.652464 0.321504,1.02716 0.54372,1.78364 1.05671,3.71266 1.51651,5.77052l0.002364 0.002364 0.008274 0.034278 0 0.003546c0.085104,0.397152 0.161934,0.817944 0.228126,1.26238 0.062646,0.41961 0.1182,0.893592 0.169026,1.42076 0.244674,2.54012 0.261222,5.80244 0.049644,9.78578l-0.003546 0.073284 -0.037824 0.758844 -0.030732 0.700926c-0.04728,1.09099 -0.069738,1.96212 -0.069738,2.57558l-0.003546 0.031914 -0.14775 3.61101 -0.046098 1.15954 -1.05671 -0.473982 -3.24577 -1.45268 -0.001182 -0.001182 -0.02364 -0.010638 0 0c-0.287226,-0.117018 -0.564996,-0.280134 -0.835674,-0.491712 -0.26595,-0.208032 -0.523626,-0.459798 -0.767118,-0.75057 -1.17018,-1.39121 -2.22925,-3.87696 -3.13585,-7.43123l-0.002364 -0.024822c-0.121746,-0.546084 -0.241128,-1.06498 -0.36642,-1.59334l0.002364 0c-0.091014,-0.387696 -0.15957,-0.647736 -0.199758,-0.771846l-0.043734 -0.128838 0 -0.078012c-0.788394,-2.07559 -1.8912,-4.3994 -3.29423,-6.96553 -1.44086,-2.6335 -3.19495,-5.51285 -5.24926,-8.63215 -0.888864,-1.23283 -1.63707,-2.33918 -2.26235,-3.30133 -0.631188,-0.972786 -1.13236,-1.78837 -1.51769,-2.43847 -0.150114,-0.202122 -0.30732,-0.433794 -0.482256,-0.702108 -0.191484,-0.293136 -0.374694,-0.581544 -0.575634,-0.901866 -0.485802,0.079194 -1.39949,0.303774 -2.76233,0.671376l-0.015366 0.003546c-1.52242,0.375876 -2.80134,0.625278 -3.83204,0.745842 -1.10399,0.126474 -1.96212,0.10638 -2.5744,-0.068556l-0.040188 -0.014184 -0.074466 -0.026004 -0.002364 0.001182c-0.569724,-0.196212 -1.14418,-0.374694 -1.72217,-0.534264 -0.570906,-0.158388 -1.17373,-0.309684 -1.80728,-0.447978 -3.17249,-0.69738 -6.70312,-1.02007 -10.5754,-0.952692l-0.01182 0.003546 -3.17249 0 -0.028368 -0.003546 -0.05319 -0.001182 0 -0.001182c-0.33687,-0.009456 -0.693834,0.001182 -1.06498,0.030732 -0.371148,0.030732 -0.73875,0.080376 -1.10044,0.148932 -1.91129,0.365238 -3.91833,1.27301 -5.98565,2.70323l-0.009456 0.008274c-0.237582,0.167844 -0.510624,0.358146 -0.830946,0.57918 -0.267132,0.185574 -0.536628,0.36642 -0.804942,0.547266 -1.36285,0.913686 -2.58385,1.65716 -3.62401,2.19616l-0.037824 0.018912c-1.27065,0.574452 -2.48102,1.19618 -3.63938,1.87229 -1.156,0.67374 -2.26826,1.40303 -3.34506,2.19379l-0.002364 -0.002364c-0.96924,0.758844 -1.87111,1.52005 -2.69851,2.2919 -0.810852,0.757662 -1.54369,1.52596 -2.18434,2.30845l-0.01182 0.013002c-0.316776,0.371148 -0.719838,0.773028 -1.21864,1.22101l-0.002364 0c-0.507078,0.45507 -1.09217,0.940872 -1.76945,1.47395l0 0 -0.270678 0.2364 0 -0.001182 -0.276588 0.243492 0.001182 0.001182c-0.442068,0.394788 -0.812034,0.741114 -1.09217,1.02125l-0.036642 0.02955 -3.85568 3.41716 -1.25528 1.11226 -0.048462 -1.67726 -0.146568 -5.12515 -0.002364 -0.022458c0,-0.158388 -0.044916,-0.505896 -0.133566,-1.04134l-0.007092 -0.037824c-0.284862,-2.40773 0.028368,-4.66654 0.9456,-6.77522 0.906594,-2.08268 2.40301,-4.00816 4.49515,-5.76934l-0.002364 -0.002364c0.775392,-0.674922 1.62407,-1.43968 2.54721,-2.29072 0.952692,-0.879408 1.99522,-1.86165 3.12403,-2.94318l0 -0.001182 0.003546 -0.003546c0.191484,-0.190302 0.510624,-0.50826 0.9456,-0.934962 0.323868,-0.316776 0.625278,-0.611094 0.901866,-0.875862 1.50941,-1.45504 2.81434,-2.63231 3.91124,-3.55191l0.002364 0c1.36639,-1.16782 2.81316,-2.22807 4.34976,-3.17722 1.54369,-0.953874 3.16776,-1.79309 4.8793,-2.51057l0.004728 -0.001182c0.458616,-0.193848 0.932598,-0.38415 1.41722,-0.566178 0.473982,-0.176118 0.938508,-0.339234 1.39003,-0.48462 2.19497,-0.704472 4.20556,-0.653646 6.49864,-0.712746 0.882954,-0.02364 0.416064,0.0591 1.88174,-0.137112 -0.294318,-0.293136 -0.731658,-0.536628 -1.31793,-0.828582 -1.09808,-0.033096 -0.351054,-0.009456 -1.46332,-0.009456 -5.67242,-0.003546 -11.5659,0.36642 -17.7229,1.17136 -8.74207,1.14181 -17.0846,5.27054 -24.9922,12.3011 -8.88391,8.10261 -14.6923,18.1579 -17.4747,30.1658zm69.0702 -72.3408c-0.341598,0.391242 -0.830946,0.781302 -1.41485,1.1229 -0.586272,0.39006 -0.977514,0.731658 -1.26947,1.02598l-10.2999 7.85794c-1.46568,1.1229 -2.2458,2.19616 -2.44083,3.12403 0,0.291954 0.098106,1.26947 0.293136,2.88053 0.488166,2.68432 2.73278,5.41711 6.73504,8.29764 0,-0.098106 1.75882,0.926688 5.2729,2.97746 2.68432,1.75763 4.44196,2.97746 5.27054,3.75876 -0.828582,-0.098106 -2.34272,0.098106 -4.39349,0.53781 -2.29308,0.486984 -4.09918,0.778938 -5.46675,0.877044 -5.61332,0 -11.2255,2.34272 -16.8884,6.98089 -1.41485,1.36639 -3.27059,3.12403 -5.56486,5.32018 -2.19734,2.29544 -4.10036,4.10036 -5.71142,5.41947 -2.58622,2.09805 -4.0519,4.24574 -4.44077,6.4419 0.096924,0 0.19503,1.51296 0.291954,4.58971 3.17367,-2.88053 4.58852,-4.10154 4.29539,-3.71148 2.97746,-3.80604 7.22557,-7.07663 12.8862,-9.76096 -0.388878,0.193848 2.00113,-1.26947 7.12628,-4.39349 2.49047,-1.5626 5.22326,-2.19734 8.15344,-2.00113 -0.293136,-0.098106 1.80491,-0.049644 6.29651,0.145386 4.10036,0 8.00569,0.586272 11.716,1.85574 0.682014,0.243492 2.09805,0.098106 4.29539,-0.586272 2.39119,-0.683196 3.85568,-0.976332 4.44196,-0.879408 0.58509,0.098106 1.65835,1.12408 3.26941,3.0271 7.37095,11.8129 11.6179,19.2323 12.7396,22.3079 2.58858,6.29651 3.75994,9.37208 3.56373,9.27397 0.196212,-8.93237 0.098106,-14.3022 -0.293136,-16.0102 -1.21982,-5.71142 -2.97628,-10.495 -5.27172,-14.3022 -1.70681,-2.73278 -2.73278,-4.88166 -2.97628,-6.44308 -0.391242,-2.00113 -0.73284,-3.32024 -1.02479,-4.00343 0.683196,-0.341598 2.19616,-1.65953 4.58734,-3.85568 1.8061,-1.8061 3.56373,-2.87935 5.2729,-3.27059 3.80604,-1.17136 6.39462,-1.75763 7.71137,-1.85456 5.46675,-0.39006 11.716,0.58509 18.7442,2.97746 -5.51521,-4.00343 -9.42054,-6.39462 -11.716,-7.12746 -1.21864,-0.39006 -2.48811,-0.829764 -3.70912,-1.31793 -0.976332,-0.439704 -1.60988,-0.683196 -2.00113,-0.683196 -0.878226,-0.193848 -3.27059,0.049644 -7.17592,0.683196l-8.0045 1.46568c-1.22101,0.193848 -3.46562,2.24462 -6.68776,6.14995 2.00113,-5.2729 2.14888,-13.3743 0.53781,-24.3102 -1.51414,-1.07326 -4.8332,-0.78012 -10.0068,0.830946 -0.92787,0.293136 -1.51296,1.17136 -1.70917,2.5874l-0.731658 8.15107c-0.098106,1.80728 -1.17136,4.44196 -3.27059,7.8603 0.19503,0 -2.6855,-1.07562 -8.59078,-3.27178 -5.80835,-2.09923 -9.07894,-4.34385 -9.86024,-6.73504l1.26947 -3.27059c0.291954,-0.781302 1.70799,-2.49047 4.14882,-5.1748 1.75763,-1.80728 2.39119,-3.66065 2.00113,-5.56486z"/>
</svg>
